<svg width="270" height="263" viewBox="0 0 270 263" fill="none" xmlns="http://www.w3.org/2000/svg">
<g filter="url(#filter0_f_1_30)">
<rect x="77.2444" y="77" width="115.756" height="109.003" rx="54.5016" fill="#FFEF9A"/>
</g>
<g filter="url(#filter1_i_1_30)">
<path d="M185.283 140.183C185.283 167.886 162.825 190.344 135.122 190.344C107.419 190.344 84.9614 167.886 84.9614 140.183C84.9614 112.48 107.419 90.0225 135.122 90.0225C162.825 90.0225 185.283 112.48 185.283 140.183Z" fill="url(#paint0_linear_1_30)"/>
</g>
<g filter="url(#filter2_b_1_30)">
<g filter="url(#filter3_i_1_30)">
<path d="M163.736 166.049C164.085 164.07 164.266 162.033 164.266 159.955C164.266 140.511 148.357 124.749 128.733 124.749C114.143 124.749 101.607 133.46 96.1348 145.919C91.7014 142.127 85.9486 139.837 79.6619 139.837C65.6442 139.837 54.2806 151.221 54.2806 165.264C54.2806 166.046 54.3158 166.819 54.3848 167.583C47.6425 170.855 43 177.721 43 185.661C43 196.771 52.0909 205.778 63.3051 205.778H159.19C170.404 205.778 179.495 196.771 179.495 185.661C179.495 176.098 172.762 168.094 163.736 166.049Z" fill="url(#paint1_linear_1_30)"/>
</g>
</g>
<defs>
<filter id="filter0_f_1_30" x="0.24437" y="0" width="269.756" height="263.003" filterUnits="userSpaceOnUse" color-interpolation-filters="sRGB">
<feFlood flood-opacity="0" result="BackgroundImageFix"/>
<feBlend mode="normal" in="SourceGraphic" in2="BackgroundImageFix" result="shape"/>
<feGaussianBlur stdDeviation="38.5" result="effect1_foregroundBlur_1_30"/>
</filter>
<filter id="filter1_i_1_30" x="84.9614" y="90.0225" width="100.322" height="105.322" filterUnits="userSpaceOnUse" color-interpolation-filters="sRGB">
<feFlood flood-opacity="0" result="BackgroundImageFix"/>
<feBlend mode="normal" in="SourceGraphic" in2="BackgroundImageFix" result="shape"/>
<feColorMatrix in="SourceAlpha" type="matrix" values="0 0 0 0 0 0 0 0 0 0 0 0 0 0 0 0 0 0 127 0" result="hardAlpha"/>
<feOffset dy="5"/>
<feGaussianBlur stdDeviation="9"/>
<feComposite in2="hardAlpha" operator="arithmetic" k2="-1" k3="1"/>
<feColorMatrix type="matrix" values="0 0 0 0 1 0 0 0 0 1 0 0 0 0 1 0 0 0 0.81 0"/>
<feBlend mode="normal" in2="shape" result="effect1_innerShadow_1_30"/>
</filter>
<filter id="filter2_b_1_30" x="16" y="97.7492" width="190.495" height="135.029" filterUnits="userSpaceOnUse" color-interpolation-filters="sRGB">
<feFlood flood-opacity="0" result="BackgroundImageFix"/>
<feGaussianBlur in="BackgroundImageFix" stdDeviation="13.5"/>
<feComposite in2="SourceAlpha" operator="in" result="effect1_backgroundBlur_1_30"/>
<feBlend mode="normal" in="SourceGraphic" in2="effect1_backgroundBlur_1_30" result="shape"/>
</filter>
<filter id="filter3_i_1_30" x="43" y="124.749" width="136.495" height="91.0289" filterUnits="userSpaceOnUse" color-interpolation-filters="sRGB">
<feFlood flood-opacity="0" result="BackgroundImageFix"/>
<feBlend mode="normal" in="SourceGraphic" in2="BackgroundImageFix" result="shape"/>
<feColorMatrix in="SourceAlpha" type="matrix" values="0 0 0 0 0 0 0 0 0 0 0 0 0 0 0 0 0 0 127 0" result="hardAlpha"/>
<feOffset dy="11"/>
<feGaussianBlur stdDeviation="5"/>
<feComposite in2="hardAlpha" operator="arithmetic" k2="-1" k3="1"/>
<feColorMatrix type="matrix" values="0 0 0 0 1 0 0 0 0 1 0 0 0 0 1 0 0 0 1 0"/>
<feBlend mode="normal" in2="shape" result="effect1_innerShadow_1_30"/>
</filter>
<linearGradient id="paint0_linear_1_30" x1="127.503" y1="167.486" x2="168.774" y2="95.1021" gradientUnits="userSpaceOnUse">
<stop stop-color="#FF9900"/>
<stop offset="1" stop-color="#FFEE94"/>
</linearGradient>
<linearGradient id="paint1_linear_1_30" x1="51.6817" y1="198.543" x2="189.383" y2="95.5691" gradientUnits="userSpaceOnUse">
<stop stop-color="white"/>
<stop offset="1" stop-color="white" stop-opacity="0.58"/>
</linearGradient>
</defs>
</svg>
