<svg width="274" height="267" viewBox="0 0 274 267" fill="none" xmlns="http://www.w3.org/2000/svg">
<g filter="url(#filter0_i_1_52)">
<path d="M207.803 100.407C207.984 99.3811 208.079 98.3256 208.079 97.2483C208.079 87.17 199.803 79 189.595 79C182.006 79 175.485 83.5153 172.639 89.9732C170.333 88.0075 167.34 86.8207 164.07 86.8207C156.779 86.8207 150.868 92.7213 150.868 100C150.868 100.405 150.886 100.806 150.922 101.202C147.415 102.898 145 106.457 145 110.572C145 116.331 149.729 121 155.562 121H205.438C211.271 121 216 116.331 216 110.572C216 105.616 212.497 101.467 207.803 100.407Z" fill="url(#paint0_linear_1_52)"/>
</g>
<g filter="url(#filter1_f_1_52)">
<rect x="77" y="77" width="120" height="113" rx="56.5" fill="#FFEF9A"/>
</g>
<g filter="url(#filter2_i_1_52)">
<path d="M190 133.5C190 163.047 166.271 187 137 187C107.729 187 84 163.047 84 133.5C84 103.953 107.729 80 137 80C166.271 80 190 103.953 190 133.5Z" fill="url(#paint1_linear_1_52)"/>
</g>
<g filter="url(#filter3_i_1_52)">
<path d="M128.803 174.407C128.984 173.381 129.079 172.326 129.079 171.248C129.079 161.17 120.803 153 110.595 153C103.006 153 96.4855 157.515 93.6389 163.973C91.3328 162.008 88.3404 160.821 85.0702 160.821C77.7787 160.821 71.8678 166.721 71.8678 174C71.8678 174.405 71.8861 174.806 71.922 175.202C68.4149 176.898 66 180.457 66 184.572C66 190.331 70.7288 195 76.562 195H126.438C132.271 195 137 190.331 137 184.572C137 179.616 133.497 175.467 128.803 174.407Z" fill="url(#paint2_linear_1_52)"/>
</g>
<defs>
<filter id="filter0_i_1_52" x="145" y="79" width="71" height="52" filterUnits="userSpaceOnUse" color-interpolation-filters="sRGB">
<feFlood flood-opacity="0" result="BackgroundImageFix"/>
<feBlend mode="normal" in="SourceGraphic" in2="BackgroundImageFix" result="shape"/>
<feColorMatrix in="SourceAlpha" type="matrix" values="0 0 0 0 0 0 0 0 0 0 0 0 0 0 0 0 0 0 127 0" result="hardAlpha"/>
<feOffset dy="11"/>
<feGaussianBlur stdDeviation="5"/>
<feComposite in2="hardAlpha" operator="arithmetic" k2="-1" k3="1"/>
<feColorMatrix type="matrix" values="0 0 0 0 1 0 0 0 0 1 0 0 0 0 1 0 0 0 1 0"/>
<feBlend mode="normal" in2="shape" result="effect1_innerShadow_1_52"/>
</filter>
<filter id="filter1_f_1_52" x="0" y="0" width="274" height="267" filterUnits="userSpaceOnUse" color-interpolation-filters="sRGB">
<feFlood flood-opacity="0" result="BackgroundImageFix"/>
<feBlend mode="normal" in="SourceGraphic" in2="BackgroundImageFix" result="shape"/>
<feGaussianBlur stdDeviation="38.5" result="effect1_foregroundBlur_1_52"/>
</filter>
<filter id="filter2_i_1_52" x="84" y="80" width="106" height="112" filterUnits="userSpaceOnUse" color-interpolation-filters="sRGB">
<feFlood flood-opacity="0" result="BackgroundImageFix"/>
<feBlend mode="normal" in="SourceGraphic" in2="BackgroundImageFix" result="shape"/>
<feColorMatrix in="SourceAlpha" type="matrix" values="0 0 0 0 0 0 0 0 0 0 0 0 0 0 0 0 0 0 127 0" result="hardAlpha"/>
<feOffset dy="5"/>
<feGaussianBlur stdDeviation="9"/>
<feComposite in2="hardAlpha" operator="arithmetic" k2="-1" k3="1"/>
<feColorMatrix type="matrix" values="0 0 0 0 1 0 0 0 0 1 0 0 0 0 1 0 0 0 0.81 0"/>
<feBlend mode="normal" in2="shape" result="effect1_innerShadow_1_52"/>
</filter>
<filter id="filter3_i_1_52" x="66" y="153" width="71" height="52" filterUnits="userSpaceOnUse" color-interpolation-filters="sRGB">
<feFlood flood-opacity="0" result="BackgroundImageFix"/>
<feBlend mode="normal" in="SourceGraphic" in2="BackgroundImageFix" result="shape"/>
<feColorMatrix in="SourceAlpha" type="matrix" values="0 0 0 0 0 0 0 0 0 0 0 0 0 0 0 0 0 0 127 0" result="hardAlpha"/>
<feOffset dy="11"/>
<feGaussianBlur stdDeviation="5"/>
<feComposite in2="hardAlpha" operator="arithmetic" k2="-1" k3="1"/>
<feColorMatrix type="matrix" values="0 0 0 0 1 0 0 0 0 1 0 0 0 0 1 0 0 0 1 0"/>
<feBlend mode="normal" in2="shape" result="effect1_innerShadow_1_52"/>
</filter>
<linearGradient id="paint0_linear_1_52" x1="149.516" y1="117.25" x2="220.962" y2="63.6333" gradientUnits="userSpaceOnUse">
<stop stop-color="white"/>
<stop offset="1" stop-color="white" stop-opacity="0.58"/>
</linearGradient>
<linearGradient id="paint1_linear_1_52" x1="128.949" y1="162.62" x2="173.178" y2="85.7751" gradientUnits="userSpaceOnUse">
<stop stop-color="#FF9900"/>
<stop offset="1" stop-color="#FFEE94"/>
</linearGradient>
<linearGradient id="paint2_linear_1_52" x1="70.5159" y1="191.25" x2="141.962" y2="137.633" gradientUnits="userSpaceOnUse">
<stop stop-color="white"/>
<stop offset="1" stop-color="white" stop-opacity="0.58"/>
</linearGradient>
</defs>
</svg>
